<?xml version="1.0" encoding="utf-8"?>
<!-- Generator: Adobe Illustrator 27.4.0, SVG Export Plug-In . SVG Version: 6.00 Build 0)  -->
<svg version="1.1" id="Capa_1" xmlns="http://www.w3.org/2000/svg" xmlns:xlink="http://www.w3.org/1999/xlink" x="0px" y="0px"
	 viewBox="0 0 261.8 45.3" style="enable-background:new 0 0 261.8 45.3;" xml:space="preserve" xmlns:c2pa="http://c2pa.org/manifest"><metadata><c2pa:manifest>AAAWgmp1bWIAAAAeanVtZGMycGEAEQAQgAAAqgA4m3EDYzJwYQAAABZcanVtYgAAAEdqdW1kYzJtYQARABCAAACqADibcQN1cm46YzJwYTo4ZjU0YWNiZS04YWY5LTRmZTItYTA1OC1kMGNlYjNhMGZmZmIAAAADl2p1bWIAAAApanVtZGMyYXMAEQAQgAAAqgA4m3EDYzJwYS5hc3NlcnRpb25zAAAAALxqdW1iAAAARGp1bWRjYm9yABEAEIAAAKoAOJtxE2MycGEuaW5ncmVkaWVudC52MwAAAAAYYzJzaM0k5dWXSUTdp2wBCmn/pIkAAABwY2JvcqNpZGM6Zm9ybWF0bWltYWdlL3N2Zyt4bWxqaW5zdGFuY2VJRHgseG1wOmlpZDpmOWM2ZjkwYS05YWZmLTQ3ZTctOGQ2NS1hMjNiNjNiYThkMjlscmVsYXRpb25zaGlwaHBhcmVudE9mAAAB4mp1bWIAAABBanVtZGNib3IAEQAQgAAAqgA4m3ETYzJwYS5hY3Rpb25zLnYyAAAAABhjMnNobiArk77nYspoK9APxdpM9gAAAZljYm9yomdhY3Rpb25zgqJmYWN0aW9ua2MycGEub3BlbmVkanBhcmFtZXRlcnOha2luZ3JlZGllbnRzgaJjdXJseC1zZWxmI2p1bWJmPWMycGEuYXNzZXJ0aW9ucy9jMnBhLmluZ3JlZGllbnQudjNkaGFzaFggcJcRMuD+hB0CPUr9lN26i427EsXs4d/X4UZJphws03SkZmFjdGlvbngdY29tLmFudGhyb3BpYy5jbGF1ZGUucHJvdmlkZWRqcGFyYW1ldGVyc6F4H2NvbS5hbnRocm9waWMub3JpZ2luLWNvbmZpZGVuY2VndW5rbm93bmtkZXNjcmlwdGlvbnhmQ2xhdWRlIHByb3ZpZGVkIHRoaXMgZmlsZSBhdCB0aGUgcmVxdWVzdCBvZiBhIHVzZXIgYW5kIG1heSBoYXZlIGNyZWF0ZWQgb3IgbW9kaWZpZWQgdGhlIGZpbGUgY29udGVudHMubXNvZnR3YXJlQWdlbnShZG5hbWVmQ2xhdWRlcmFsbEFjdGlvbnNJbmNsdWRlZPUAAADIanVtYgAAAEBqdW1kY2JvcgARABCAAACqADibcRNjMnBhLmhhc2guZGF0YQAAAAAYYzJzaOZ3HU0scuS5MetaqQ5CsUYAAACAY2JvcqVjYWxnZnNoYTI1NmNwYWRMAAAAAAAAAAAAAAAAZGhhc2hYIPCMnxqbZGCZxvFH3j0BFLsT5ZJDfJEt6OEmg4xfOi3lZG5hbWVuanVtYmYgbWFuaWZlc3RqZXhjbHVzaW9uc4GiZXN0YXJ0GQGjZmxlbmd0aBkeBAAAAj5qdW1iAAAAJ2p1bWRjMmNsABEAEIAAAKoAOJtxA2MycGEuY2xhaW0udjIAAAACD2Nib3KlY2FsZ2ZzaGEyNTZpc2lnbmF0dXJleE1zZWxmI2p1bWJmPS9jMnBhL3VybjpjMnBhOjhmNTRhY2JlLThhZjktNGZlMi1hMDU4LWQwY2ViM2EwZmZmYi9jMnBhLnNpZ25hdHVyZWppbnN0YW5jZUlEeCx4bXA6aWlkOmFhMDdlMGI3LWE2MjgtNDM4MS1iNTMyLWFmMTJjNTYwNDU0OHJjcmVhdGVkX2Fzc2VydGlvbnODomN1cmx4LXNlbGYjanVtYmY9YzJwYS5hc3NlcnRpb25zL2MycGEuaW5ncmVkaWVudC52M2RoYXNoWCBwlxEy4P6EHQI9Sv2U3bqLjbsSxezh39fhRkmmHCzTdKJjdXJseCpzZWxmI2p1bWJmPWMycGEuYXNzZXJ0aW9ucy9jMnBhLmFjdGlvbnMudjJkaGFzaFggsxTZT+CpbwoSfTfpLc1UC9mPQ+su01ye5gzUkKg/ptGiY3VybHgpc2VsZiNqdW1iZj1jMnBhLmFzc2VydGlvbnMvYzJwYS5oYXNoLmRhdGFkaGFzaFgguD1sQLvmYJl2MxlVDdgddDkkDBlI9GXwgPXa7VCCoNx0Y2xhaW1fZ2VuZXJhdG9yX2luZm+jZG5hbWVvQW50aHJvcGljIEZpbGVzZ3ZlcnNpb25lMS4wLjBrc3BlY1ZlcnNpb25lMi40LjAAABA4anVtYgAAAChqdW1kYzJjcwARABCAAACqADibcQNjMnBhLnNpZ25hdHVyZQAAABAIY2JvctKEWQISogEmGCFZAgowggIGMIIBjaADAgECAhRA5aAK7sI50L64g/oGQgU9Z1UTADAKBggqhkjOPQQDAzBJMRcwFQYDVQQKEw5BbnRocm9waWMsIFBCQzEuMCwGA1UEAxMlQW50aHJvcGljIENvbnRlbnQgQ3JlZGVudGlhbHMgUm9vdCBDQTAeFw0yNjA4MDcxODQzNTZaFw0yODA4MDYxOTQzNTZaMEQxFzAVBgNVBAoTDkFudGhyb3BpYywgUEJDMSkwJwYDVQQDEyBBbnRocm9waWMgQ2xhdWRlIENvbnRlbnQgU2lnbmluZzBZMBMGByqGSM49AgEGCCqGSM49AwEHA0IABJh6CmvLUBgFFNU0vUKlOVtE6djd17L5SuwX0LemFisBM3dkd/3cyjxFA3Qo5S46fX0/ihY0VZ7mfb9KF703t5OjWDBWMA4GA1UdDwEB/wQEAwIHgDAVBgNVHSUEDjAMBgorBgEEAYPoXgIBMAwGA1UdEwEB/wQCMAAwHwYDVR0jBBgwFoAUzlHiBIFOZFsj+OPEz5o+nMHXXMIwCgYIKoZIzj0EAwMDZwAwZAIwMXMdFJ4BetLLVY7ORuE9noqbbAZOZn/aArXyTwFAZfKrPzxF2vPoJNf1+UCdg1XGAjBwX1zd9WGqYkqmL5SFqw1QySjr1zJfpJM9+1rdDwSPLMOPOjKuiXjoU/pUUeG9RwmhY3BhZFkNngAAAAAAAAAAAAAAAAAAAAAAAAAAAAAAAAAAAAAAAAAAAAAAAAAAAAAAAAAAAAAAAAAAAAAAAAAAAAAAAAAAAAAAAAAAAAAAAAAAAAAAAAAAAAAAAAAAAAAAAAAAAAAAAAAAAAAAAAAAAAAAAAAAAAAAAAAAAAAAAAAAAAAAAAAAAAAAAAAAAAAAAAAAAAAAAAAAAAAAAAAAAAAAAAAAAAAAAAAAAAAAAAAAAAAAAAAAAAAAAAAAAAAAAAAAAAAAAAAAAAAAAAAAAAAAAAAAAAAAAAAAAAAAAAAAAAAAAAAAAAAAAAAAAAAAAAAAAAAAAAAAAAAAAAAAAAAAAAAAAAAAAAAAAAAAAAAAAAAAAAAAAAAAAAAAAAAAAAAAAAAAAAAAAAAAAAAAAAAAAAAAAAAAAAAAAAAAAAAAAAAAAAAAAAAAAAAAAAAAAAAAAAAAAAAAAAAAAAAAAAAAAAAAAAAAAAAAAAAAAAAAAAAAAAAAAAAAAAAAAAAAAAAAAAAAAAAAAAAAAAAAAAAAAAAAAAAAAAAAAAAAAAAAAAAAAAAAAAAAAAAAAAAAAAAAAAAAAAAAAAAAAAAAAAAAAAAAAAAAAAAAAAAAAAAAAAAAAAAAAAAAAAAAAAAAAAAAAAAAAAAAAAAAAAAAAAAAAAAAAAAAAAAAAAAAAAAAAAAAAAAAAAAAAAAAAAAAAAAAAAAAAAAAAAAAAAAAAAAAAAAAAAAAAAAAAAAAAAAAAAAAAAAAAAAAAAAAAAAAAAAAAAAAAAAAAAAAAAAAAAAAAAAAAAAAAAAAAAAAAAAAAAAAAAAAAAAAAAAAAAAAAAAAAAAAAAAAAAAAAAAAAAAAAAAAAAAAAAAAAAAAAAAAAAAAAAAAAAAAAAAAAAAAAAAAAAAAAAAAAAAAAAAAAAAAAAAAAAAAAAAAAAAAAAAAAAAAAAAAAAAAAAAAAAAAAAAAAAAAAAAAAAAAAAAAAAAAAAAAAAAAAAAAAAAAAAAAAAAAAAAAAAAAAAAAAAAAAAAAAAAAAAAAAAAAAAAAAAAAAAAAAAAAAAAAAAAAAAAAAAAAAAAAAAAAAAAAAAAAAAAAAAAAAAAAAAAAAAAAAAAAAAAAAAAAAAAAAAAAAAAAAAAAAAAAAAAAAAAAAAAAAAAAAAAAAAAAAAAAAAAAAAAAAAAAAAAAAAAAAAAAAAAAAAAAAAAAAAAAAAAAAAAAAAAAAAAAAAAAAAAAAAAAAAAAAAAAAAAAAAAAAAAAAAAAAAAAAAAAAAAAAAAAAAAAAAAAAAAAAAAAAAAAAAAAAAAAAAAAAAAAAAAAAAAAAAAAAAAAAAAAAAAAAAAAAAAAAAAAAAAAAAAAAAAAAAAAAAAAAAAAAAAAAAAAAAAAAAAAAAAAAAAAAAAAAAAAAAAAAAAAAAAAAAAAAAAAAAAAAAAAAAAAAAAAAAAAAAAAAAAAAAAAAAAAAAAAAAAAAAAAAAAAAAAAAAAAAAAAAAAAAAAAAAAAAAAAAAAAAAAAAAAAAAAAAAAAAAAAAAAAAAAAAAAAAAAAAAAAAAAAAAAAAAAAAAAAAAAAAAAAAAAAAAAAAAAAAAAAAAAAAAAAAAAAAAAAAAAAAAAAAAAAAAAAAAAAAAAAAAAAAAAAAAAAAAAAAAAAAAAAAAAAAAAAAAAAAAAAAAAAAAAAAAAAAAAAAAAAAAAAAAAAAAAAAAAAAAAAAAAAAAAAAAAAAAAAAAAAAAAAAAAAAAAAAAAAAAAAAAAAAAAAAAAAAAAAAAAAAAAAAAAAAAAAAAAAAAAAAAAAAAAAAAAAAAAAAAAAAAAAAAAAAAAAAAAAAAAAAAAAAAAAAAAAAAAAAAAAAAAAAAAAAAAAAAAAAAAAAAAAAAAAAAAAAAAAAAAAAAAAAAAAAAAAAAAAAAAAAAAAAAAAAAAAAAAAAAAAAAAAAAAAAAAAAAAAAAAAAAAAAAAAAAAAAAAAAAAAAAAAAAAAAAAAAAAAAAAAAAAAAAAAAAAAAAAAAAAAAAAAAAAAAAAAAAAAAAAAAAAAAAAAAAAAAAAAAAAAAAAAAAAAAAAAAAAAAAAAAAAAAAAAAAAAAAAAAAAAAAAAAAAAAAAAAAAAAAAAAAAAAAAAAAAAAAAAAAAAAAAAAAAAAAAAAAAAAAAAAAAAAAAAAAAAAAAAAAAAAAAAAAAAAAAAAAAAAAAAAAAAAAAAAAAAAAAAAAAAAAAAAAAAAAAAAAAAAAAAAAAAAAAAAAAAAAAAAAAAAAAAAAAAAAAAAAAAAAAAAAAAAAAAAAAAAAAAAAAAAAAAAAAAAAAAAAAAAAAAAAAAAAAAAAAAAAAAAAAAAAAAAAAAAAAAAAAAAAAAAAAAAAAAAAAAAAAAAAAAAAAAAAAAAAAAAAAAAAAAAAAAAAAAAAAAAAAAAAAAAAAAAAAAAAAAAAAAAAAAAAAAAAAAAAAAAAAAAAAAAAAAAAAAAAAAAAAAAAAAAAAAAAAAAAAAAAAAAAAAAAAAAAAAAAAAAAAAAAAAAAAAAAAAAAAAAAAAAAAAAAAAAAAAAAAAAAAAAAAAAAAAAAAAAAAAAAAAAAAAAAAAAAAAAAAAAAAAAAAAAAAAAAAAAAAAAAAAAAAAAAAAAAAAAAAAAAAAAAAAAAAAAAAAAAAAAAAAAAAAAAAAAAAAAAAAAAAAAAAAAAAAAAAAAAAAAAAAAAAAAAAAAAAAAAAAAAAAAAAAAAAAAAAAAAAAAAAAAAAAAAAAAAAAAAAAAAAAAAAAAAAAAAAAAAAAAAAAAAAAAAAAAAAAAAAAAAAAAAAAAAAAAAAAAAAAAAAAAAAAAAAAAAAAAAAAAAAAAAAAAAAAAAAAAAAAAAAAAAAAAAAAAAAAAAAAAAAAAAAAAAAAAAAAAAAAAAAAAAAAAAAAAAAAAAAAAAAAAAAAAAAAAAAAAAAAAAAAAAAAAAAAAAAAAAAAAAAAAAAAAAAAAAAAAAAAAAAAAAAAAAAAAAAAAAAAAAAAAAAAAAAAAAAAAAAAAAAAAAAAAAAAAAAAAAAAAAAAAAAAAAAAAAAAAAAAAAAAAAAAAAAAAAAAAAAAAAAAAAAAAAAAAAAAAAAAAAAAAAAAAAAAAAAAAAAAAAAAAAAAAAAAAAAAAAAAAAAAAAAAAAAAAAAAAAAAAAAAAAAAAAAAAAAAAAAAAAAAAAAAAAAAAAAAAAAAAAAAAAAAAAAAAAAAAAAAAAAAAAAAAAAAAAAAAAAAAAAAAAAAAAAAAAAAAAAAAAAAAAAAAAAAAAAAAAAAAAAAAAAAAAAAAAAAAAAAAAAAAAAAAAAAAAAAAAAAAAAAAAAAAAAAAAAAAAAAAAAAAAAAAAAAAAAAAAAAAAAAAAAAAAAAAAAAAAAAAAAAAAAAAAAAAAAAAAAAAAAAAAAAAAAAAAAAAAAAAAAAAAAAAAAAAAAAAAAAAAAAAAAAAAAAAAAAAAAAAAAAAAAAAAAAAAAAAAAAAAAAAAAAAAAAAAAAAAAAAAAAAAAAAAAAAAAAAAAAAAAAAAAAAAAAAAAAAAAAAAAAAAAAAAAAAAAAAAAAAAAAAAAAAAAAAAAAAAAAAAAAAAAAAAAAAAAAAAAAAAAAAAAAAAAAAAAAAAAAAAAAAAAAAAAAAAAAAAAAAAAAAAAAAAAAAAAAAAAAAAAAAAAAAAAAAAAAAAAAAAAAAAAAAAAAAAAAAAAAAAAAAAAAAAAAAAAAAAAAAAAAAAAAAAAAAAAAAAAAAAAAAAAAAAAAAAAAAAAAAAAAAAAAAAAAAAAAAAAAAAAAAAAAAAAAAAAAAAAAAAAAAAAAAAAAAAAAAAAAAAAAAAAAAAAAAAAAAAAAAAAAAAAAAAAAAAAAAAAAAAAAAAAAAAAAAAAAAAAAAAAAAAAAAAAAAAAAAAAAAAAAAAAAAAAAAAAAAAAAAAAAAAAAAAAAAAAAAAAAAAAAAAAAAAAAAAAAAAAAAAAAAAAAAAAAAAAAAAAAAAAAAAAAAAAAAAAAAAAAAAAAAAAAAAAAAAAAAAAAAAAAAAAAAAAAAAAAAAAAAAAAAAAAAAAAAAAAAAAAAAAAAAAAAAAAAAAAAAAAAAAAAAAAAAAAAAAAAAAAAAAAAAAAAAAAAAAAAAAAAAAAAAAAAAAAAAAAAAAAAAAAAAAAAAAAAAAAAAAAAAAAAAAAAAAAAAAAAAAAAAAAAAAAAAAAAAAAAAAAAAAAAAAAAAAAAAAAAAAAAAAAAAAAAAAAAAAAAAAAAAAAAAAAAAAAAAAAAAAAAAAAAAAAAAAAAAAAAAAAAAAAAAAAAAAAAAAAAAAAAAAAAAAAAAAAAAAAAAAAAAAAAAAAAAAAAAAAAAAAAAAAAAAAAAAAAAAAAAAAAAAAAAAAAAAAAAAAAAAAAAAAAAAAAAAAAAAAAAAAAAAAAAAAAAAAAAAAAAAAAAAAAAAAAAAAAAAAAAAAAAAAAAAAAAAAAAAAAAAAAAAAAAAAAAAAAAAAAAAAAAAAAAAAAAAAAAAAAAAAAAAAAAAAAAAAAAAAAAAAAAAAAAAAAAAAAAAAAAAAAAAAAAAAAAAAAAAAAAAAAAAAAAAAAAAAAAAAAAAAAAAAAAAAAAAAAAAAAAAAAAAAAAAAAAAAAAAAAAAAAAAAAAAAAAAAAAAAAAAAAAAAAAAAAAAAAAAAAAAAAAAAAAAAAAAAAAAAAPZYQISwI/NRULNt6JRO2pEyrTbDJiD2F1vuFy15JLcdbT5jgFA2m1N9CYSwWKLghS6AH1Q7cZZ50qEEpbuFTPnWdLs=</c2pa:manifest></metadata>
<style type="text/css">
	.st0{fill:#FFFFFF;}
</style>
<path class="st0" d="M114,25.5l-4.7,0c-0.6,0-1.1-0.5-1.1-1.1V13.7c0-0.6,0.5-1.1,1.1-1.1l0,0h4.7l0,0c3.5,0,6.4,2.9,6.4,6.4
	S117.5,25.5,114,25.5 M115.2,6.8H102l0,0c-0.6,0-1.1,0.5-1.1,1v29.1c0,0.6,0.5,1,1.1,1l0,0h5.2l0,0c0.6,0,1.1-0.5,1.1-1.1v-4.7
	c0-0.6,0.5-1,1.1-1l0,0h5.9c6.7,0,12.2-5,12.2-12.2C127.4,12.2,121.9,6.8,115.2,6.8 M94,6.8H72.2c-0.6,0-1.1,0.5-1.1,1v29.1
	c0,0.6,0.5,1,1.1,1H94c0.6,0,1.1-0.5,1.1-1v-3.7c0-0.6-0.5-1-1.1-1l0,0H79.6c-0.6,0-1.1-0.5-1.1-1V26c0-0.6,0.5-1,1.1-1h9.7
	c0.6,0,1.1-0.5,1.1-1v-3c0-0.6-0.5-1-1.1-1h-9.7c-0.6,0-1.1-0.5-1.1-1v-5.2c0-0.6,0.5-1.1,1.1-1.1l0,0H94l0,0c0.6,0,1.1-0.5,1.1-1.1
	V7.8C95.1,7.3,94.6,6.8,94,6.8 M25,24.4c0,0.6-0.5,1-1,1h-9.6c-0.6,0-1.1-0.5-1.1-1v-5.9l0,0c0-3.2,2.6-5.9,5.9-5.9s5.9,2.6,5.9,5.9
	h0L25,24.4L25,24.4L25,24.4z M19.1,6.4c-7.3,0-13.2,5.9-13.2,13.2V19v17.2c0,1.2,0.5,1.7,1.1,1.7h5.3c0.6,0,1.1-0.5,1.1-1v-5.3
	c0-0.6,0.5-1,1.1-1h9.6c0.6,0,1,0.5,1,1v5.3c0,0.6,0.5,1,1,1h5.3c0.6,0,1-0.5,1-1.7V19v0.6C32.3,12.3,26.4,6.4,19.1,6.4 M63.7,6.8
	h-5.3c-0.6,0-1,0.5-1,1v17.3L45.1,7.2c-0.2-0.2-0.5-0.4-0.8-0.4h-4.8c-0.6,0-1,0.5-1,1.1v29.1c0,0.6,0.5,1,1,1h5.3c0.6,0,1-0.5,1-1
	l0,0V18.7c0,0,12.2,18,12.6,18.4c0.3,0.4,0.9,0.8,1.5,0.8h3.8c0.6,0,1-0.5,1-1V7.8C64.8,7.2,64.3,6.8,63.7,6.8"/>
<path class="st0" d="M194.9,30.7h-1.4V38h1.4C194.9,38,194.9,30.7,194.9,30.7z M133.9,26h5.4v-0.8h-4.5v-2.5h3.8v-0.8h-3.8v-2.3h4.4
	v-0.8h-5.2L133.9,26L133.9,26z M139.4,35.8c0-1.1-0.7-1.6-1.9-2l-1.1-0.3c-0.5-0.2-1-0.3-1-0.9s0.6-0.8,1.4-0.8s1.7,0.2,2.1,0.5
	L139,31c-0.6-0.3-1.3-0.5-2.3-0.5c-1.7,0-2.8,0.9-2.8,2.2c0,1.2,1,1.7,1.9,2l1.1,0.3c0.6,0.2,0.9,0.4,0.9,0.8c0,0.6-0.6,0.9-1.4,0.9
	c-0.9,0-2.1-0.3-2.4-0.5l-0.1,1.3c0.5,0.3,1.7,0.5,2.7,0.5C138.2,38.1,139.4,37.1,139.4,35.8 M145.9,30.7h-5.4V38h5.5v-1.2h-4v-1.8
	h3.5v-1.3H142v-1.7h3.9V30.7L145.9,30.7z M146.4,22.3c0,1.8-1,2.8-2.8,2.8h-2.1v-5.7h2.1C145.4,19.5,146.4,20.5,146.4,22.3
	 M147.3,22.3c0-2.2-1.2-3.6-3.7-3.6h-3V26h3C146,26,147.3,24.6,147.3,22.3 M150.9,30.6c-2.3,0-4.2,1.4-4.2,3.8s1.8,3.8,4.1,3.8
	c1.1,0,1.9-0.2,2.5-0.5l-0.2-1.3c-0.5,0.3-1.3,0.5-2.1,0.5c-1.6,0-2.8-1-2.8-2.5c0-1.6,1.3-2.4,2.8-2.4c0.8,0,1.6,0.2,2.1,0.4
	l0.1-1.3C152.6,30.8,151.8,30.6,150.9,30.6 M155.1,23.4v-4.7h-0.9v4.6c0,1.2-0.9,1.9-2.3,1.9s-2.3-0.7-2.3-1.9v-4.6h-0.9v4.7
	c0,0.9,0.3,1.5,0.9,2c0.6,0.5,1.3,0.7,2.3,0.7C153.7,26.1,155.1,25.1,155.1,23.4 M157.4,36.8c-1,0-1.7-0.5-1.7-1.5v-4.6h-1.4v4.7
	c0,1.8,1.4,2.7,3.2,2.7c1.7,0,3.2-0.8,3.2-2.7v-4.7h-1.4v4.6C159.2,36.3,158.5,36.8,157.4,36.8 M158.4,24.4
	c-0.6-0.5-0.9-1.2-0.9-2.1s0.3-1.6,0.9-2.1s1.3-0.8,2.3-0.8c0.8,0,1.5,0.1,2.1,0.4l0.1-0.8c-0.5-0.3-1.3-0.5-2.2-0.5
	c-2.4,0-4.1,1.5-4.1,3.8c0,1.1,0.4,2,1.1,2.7c0.8,0.7,1.8,1,3,1c0.4,0,0.8,0,1.2-0.1c0.3-0.1,0.7-0.2,1.1-0.4l-0.1-0.9
	c-0.2,0.1-0.4,0.2-1.1,0.4c-0.3,0.1-0.6,0.1-1,0.1C159.8,25.2,159,25,158.4,24.4 M167.7,35.7l-4.2-5h-1.3V38h1.4v-5l4.2,5h1.3v-7.3
	h-1.4L167.7,35.7L167.7,35.7z M168.9,23.5h-3.3l1.6-3.9L168.9,23.5z M169.8,26h0.9l-3-7.3h-1.1l-3,7.3h0.9l0.7-1.7h3.9L169.8,26
	L169.8,26z M172.9,24.4c-0.6-0.5-0.9-1.2-0.9-2.1s0.3-1.6,0.9-2.1s1.3-0.8,2.3-0.8c0.8,0,1.5,0.1,2.1,0.4l0.1-0.8
	c-0.5-0.3-1.3-0.5-2.2-0.5c-2.4,0-4.1,1.5-4.1,3.8c0,1.1,0.4,2,1.1,2.7c0.8,0.7,1.8,1,3,1c0.4,0,0.8,0,1.2-0.1
	c0.3-0.1,0.7-0.2,1.1-0.4l-0.1-0.9c-0.2,0.1-0.4,0.2-1.1,0.4c-0.3,0.1-0.6,0.1-1,0.1C174.3,25.2,173.5,25,172.9,24.4 M176,34.3
	c0,1.5-0.7,2.4-2.4,2.4h-1.5v-4.8h1.5C175.3,31.9,176,32.8,176,34.3 M177.5,34.3c0-2.2-1.3-3.6-3.7-3.6h-3.1V38h3.1
	C176.2,38,177.5,36.6,177.5,34.3 M178.8,26h0.9v-7.3h-0.9C178.8,18.7,178.8,26,178.8,26z M181.4,32.2l1.3,3.2h-2.6L181.4,32.2
	L181.4,32.2z M182.2,30.7h-1.7l-2.9,7.3h1.6l0.5-1.4h3.4l0.5,1.4h1.6L182.2,30.7L182.2,30.7z M185.7,18.1l1-1.8h-1l-0.8,1.8
	C184.9,18.1,185.7,18.1,185.7,18.1z M188,22.4c0,0.9-0.3,1.6-0.8,2.1c-0.6,0.5-1.2,0.8-2.1,0.8s-1.5-0.3-2.1-0.8
	c-0.5-0.5-0.8-1.2-0.8-2.1s0.3-1.6,0.8-2.1c0.6-0.6,1.2-0.8,2.1-0.8s1.6,0.3,2.1,0.8C187.7,20.8,188,21.5,188,22.4 M188.9,22.4
	c0-2.2-1.7-3.8-3.9-3.8c-2.1,0-3.9,1.6-3.8,3.8c0,2.2,1.7,3.8,3.8,3.7C187.3,26.1,188.9,24.5,188.9,22.4 M190.5,33.3
	c0,0.8-0.6,1.3-1.3,1.3h-1.8v-2.6h1.8C190,31.9,190.5,32.4,190.5,33.3 M189.4,30.7H186V38h1.4v-2.2h1.7l1.7,2.1h1.8l-1.9-2.4
	c0.8-0.4,1.4-1.2,1.4-2.3C192,31.6,190.8,30.7,189.4,30.7 M196.3,26h0.9v-7.3h-0.9v6l-5-6h-0.9V26h0.9v-6L196.3,26L196.3,26z
	 M200.7,35.4h-2.6l1.3-3.2L200.7,35.4L200.7,35.4z M203.2,38l-2.9-7.3h-1.7l-2.9,7.3h1.6l0.5-1.4h3.4l0.5,1.4H203.2z"/>
</svg>
